# xmcd
#
# Track frame offsets:
#  150
#  19019
#  40984
#  65937
#  80988
#  103047
#  123591
#  143546
#  165572
#  193109
#  228169
#  248915
#
# Disc length: 3618 seconds
#
# Revision: 0
# Processed by: cddbd v1.5.1PL2 Copyright (c) Steve Scherf et al.
# Submitted via: Collectorz.com_Music_Collector 6.11
#
DISCID=a70e200c
DTITLE=Glenn Hughes - Building the machine
DYEAR=1900
DGENRE=
TTITLE0=Can't stop the flood
TTITLE1=Inside
TTITLE2=Out on me
TTITLE3=I just want to
TTITLE4=Celebrate
TTITLE5=Don't let it slip away
TTITLE6=Feels like home
TTITLE7=Highball shooter
TTITLE8=When you fall
TTITLE9=I will follow you
TTITLE10=Beyond the numb
TTITLE11=Big sky
EXTD=
EXTT0=
EXTT1=
EXTT2=
EXTT3=
EXTT4=
EXTT5=
EXTT6=
EXTT7=
EXTT8=
EXTT9=
EXTT10=
EXTT11=
PLAYORDER=
